<?xml version="1.0" standalone="no"?><!DOCTYPE svg PUBLIC "-//W3C//DTD SVG 1.1//EN" "http://www.w3.org/Graphics/SVG/1.1/DTD/svg11.dtd"><svg t="1656489860011" class="icon" viewBox="0 0 1024 1024" version="1.1" xmlns="http://www.w3.org/2000/svg" p-id="13103" xmlns:xlink="http://www.w3.org/1999/xlink" width="200" height="200"><defs><style type="text/css">@font-face { font-family: feedback-iconfont; src: url("//at.alicdn.com/t/font_1031158_u69w8yhxdu.woff2?t=1630033759944") format("woff2"), url("//at.alicdn.com/t/font_1031158_u69w8yhxdu.woff?t=1630033759944") format("woff"), url("//at.alicdn.com/t/font_1031158_u69w8yhxdu.ttf?t=1630033759944") format("truetype"); }
</style></defs><path d="M512 512m-501.76 0a501.76 501.76 0 1 0 1003.52 0 501.76 501.76 0 1 0-1003.52 0Z" fill="#508DEF" p-id="13104"></path><path d="M771.6864 388.9152l14.7456-12.9024-56.32-6.144 7.7824-6.7584c28.0576-24.3712 49.152-56.32 61.44-94.4128-39.3216 6.7584-74.1376 22.9376-102.1952 47.104l-7.7824 6.7584 2.048-56.7296-14.7456 12.9024-15.9744 13.7216c-26.2144 22.528-29.0816 62.0544-6.3488 88.2688l13.312 15.36c22.528 26.2144 62.0544 29.0816 88.2688 6.3488l15.7696-13.5168z" fill="#FF8939" p-id="13105"></path><path d="M714.9568 428.2368c-20.48 0-40.7552-8.6016-55.0912-25.1904l-13.312-15.36c-26.2144-30.3104-22.9376-76.3904 7.3728-102.6048l30.72-26.624c3.072-2.6624 7.3728-3.2768 11.0592-1.4336 3.6864 1.8432 5.9392 5.5296 5.7344 9.6256l-1.2288 33.792c27.648-21.0944 60.416-35.0208 97.28-41.3696 3.4816-0.6144 7.168 0.6144 9.4208 3.4816 2.2528 2.6624 3.072 6.5536 2.048 9.8304-11.6736 35.6352-30.1056 65.9456-55.0912 90.3168l33.5872 3.6864c4.096 0.4096 7.3728 3.2768 8.6016 7.168 1.2288 3.8912 0 8.192-3.072 10.8544l-30.72 26.624c-13.5168 11.264-30.5152 17.2032-47.3088 17.2032z m-34.6112-139.0592l-12.9024 11.264c-21.9136 18.8416-24.1664 52.0192-5.3248 73.728l13.312 15.36c18.8416 21.9136 52.0192 24.1664 73.728 5.3248l12.9024-11.264-32.9728-3.6864c-4.096-0.4096-7.3728-3.2768-8.6016-7.168-1.2288-3.8912 0-8.192 3.072-10.8544l7.7824-6.7584c22.528-19.456 39.936-43.8272 52.0192-72.704-30.3104 7.7824-56.9344 21.504-79.4624 40.96l-7.7824 6.7584c-3.072 2.6624-7.3728 3.2768-11.0592 1.4336-3.6864-1.8432-5.9392-5.5296-5.7344-9.6256l1.024-32.768z" fill="#1C1D21" p-id="13106"></path><path d="M512 1024c-136.8064 0-265.4208-53.248-362.0864-149.9136S0 648.8064 0 512 53.248 246.5792 149.9136 149.9136 375.1936 0 512 0s265.4208 53.248 362.0864 149.9136S1024 375.1936 1024 512s-53.248 265.4208-149.9136 362.0864S648.8064 1024 512 1024z m0-1003.52C241.0496 20.48 20.48 241.0496 20.48 512s220.5696 491.52 491.52 491.52 491.52-220.5696 491.52-491.52S782.9504 20.48 512 20.48z" fill="#1C1D21" p-id="13107"></path><path d="M512 1013.76c227.328 0 419.2256-151.1424 480.8704-358.4H31.1296C92.7744 862.6176 284.672 1013.76 512 1013.76z" fill="#0ABFB2" p-id="13108"></path><path d="M512 1024c-112.4352 0-219.3408-35.84-308.8384-103.6288-86.6304-65.536-151.1424-158.72-182.0672-262.144-1.024-3.072-0.4096-6.5536 1.6384-9.0112 1.8432-2.6624 4.9152-4.096 8.192-4.096h961.9456c3.2768 0 6.3488 1.4336 8.192 4.096 1.8432 2.6624 2.4576 5.9392 1.6384 9.0112-30.72 103.424-95.4368 196.608-182.0672 262.144C731.3408 988.16 624.4352 1024 512 1024zM45.056 665.6c65.536 199.68 255.5904 337.92 466.944 337.92s401.408-138.24 466.944-337.92H45.056z" fill="#1C1D21" p-id="13109"></path><path d="M691.8144 403.2512c-5.5296-31.1296-32.5632-53.6576-64.1024-53.6576h-39.1168l2.4576 45.056 16.1792 27.0336-41.984 53.248 2.8672-53.0432-27.4432-27.2384v-45.056h-144.1792c-31.5392 0-58.5728 22.528-64.1024 53.6576l-20.48 113.0496 400.1792 0.2048-20.2752-113.2544z" fill="#8CEEF9" p-id="13110"></path><path d="M712.0896 526.5408l-400.1792-0.2048c-3.072 0-5.9392-1.4336-7.7824-3.6864-2.048-2.2528-2.6624-5.3248-2.2528-8.3968l20.48-113.0496c1.024-5.5296 6.3488-9.216 11.8784-8.192 5.5296 1.024 9.216 6.3488 8.192 11.8784l-18.2272 101.1712 375.808 0.2048-18.2272-101.1712c-4.7104-26.2144-27.4432-45.2608-54.0672-45.2608h-28.2624l1.6384 31.744 14.9504 24.9856c2.2528 3.6864 1.8432 8.192-0.8192 11.6736l-41.984 53.248c-2.6624 3.4816-7.3728 4.9152-11.6736 3.2768-4.096-1.6384-6.7584-5.7344-6.5536-10.0352l2.4576-48.5376-24.1664-24.1664c-1.8432-1.8432-3.072-4.5056-3.072-7.168v-45.056c0-5.7344 4.5056-10.24 10.24-10.24s10.24 4.5056 10.24 10.24v40.7552l24.3712 24.3712c2.048 2.048 3.072 4.9152 3.072 7.7824l-1.024 20.8896 17.6128-22.3232-12.6976-21.0944c-0.8192-1.4336-1.4336-3.072-1.4336-4.7104l-2.4576-45.056c-0.2048-2.8672 0.8192-5.5296 2.8672-7.5776s4.7104-3.2768 7.3728-3.2768h39.1168c36.4544 0 67.7888 26.2144 74.1376 62.0544l20.2752 113.2544c0.6144 3.072-0.2048 6.144-2.2528 8.3968-1.6384 2.048-4.5056 3.2768-7.5776 3.2768z" fill="#1C1D21" p-id="13111"></path><path d="M286.3104 833.7408h-46.2848c-21.7088 0-39.5264-17.6128-39.5264-39.5264v-66.7648H325.632v66.7648c0.2048 21.9136-17.6128 39.5264-39.3216 39.5264z" fill="#AAADAD" p-id="13112"></path><path d="M241.664 843.9808c-5.7344 0-10.24-4.5056-10.24-10.24v-42.1888c0-5.7344 4.5056-10.24 10.24-10.24s10.24 4.5056 10.24 10.24v42.1888c0 5.5296-4.5056 10.24-10.24 10.24z" fill="#E0E0E0" p-id="13113"></path><path d="M783.7696 833.9456h-46.2848c-21.7088 0-39.5264-17.6128-39.5264-39.5264v-66.7648h125.1328v66.7648c0.2048 21.7088-17.408 39.5264-39.3216 39.5264z" fill="#AAADAD" p-id="13114"></path><path d="M712.0896 516.3008l-400.1792-0.2048-70.2464 47.5136c-25.6 17.2032-40.7552 46.08-40.96 76.8v86.8352l622.592 0.2048v-86.8352c0-30.72-15.36-59.5968-40.7552-76.8l-70.4512-47.5136z" fill="#FF3E63" p-id="13115"></path><path d="M691.8144 403.2512c-5.5296-31.1296-32.5632-53.6576-64.1024-53.6576h-39.1168l2.4576 45.056h36.4544c9.6256 0 18.0224 6.9632 19.6608 16.5888l20.48 105.0624H356.352l20.48-105.0624c1.6384-9.6256 10.0352-16.5888 19.6608-16.5888H540.672v-45.056h-144.1792c-31.5392 0-58.5728 22.528-64.1024 53.6576l-20.48 113.0496 400.1792 0.2048-20.2752-113.2544z" fill="#FF3E63" p-id="13116"></path><path d="M823.296 737.8944l-622.592-0.2048c-2.6624 0-5.3248-1.024-7.168-3.072-1.8432-1.8432-3.072-4.5056-3.072-7.168v-86.8352c0-34.2016 16.9984-66.1504 45.4656-85.4016l70.2464-47.5136c1.6384-1.2288 3.6864-1.8432 5.7344-1.8432l400.1792 0.2048c2.048 0 4.096 0.6144 5.7344 1.8432l70.2464 47.5136c28.4672 19.2512 45.2608 50.9952 45.2608 85.4016v86.8352c0.2048 5.5296-4.5056 10.24-10.0352 10.24z m-612.352-20.6848l602.112 0.2048v-76.5952c0-27.4432-13.5168-53.0432-36.2496-68.4032l-67.7888-45.6704-394.0352-0.2048-67.7888 45.6704c-22.7328 15.36-36.2496 40.96-36.2496 68.4032v76.5952z" fill="#1C1D21" p-id="13117"></path><path d="M241.664 650.6496c-5.7344 0-10.24-4.5056-10.24-10.24 0-20.6848 10.24-39.936 27.2384-51.4048l53.8624-36.2496c5.7344-3.8912 12.288-5.9392 19.2512-5.9392h51.2c5.7344 0 10.24 4.5056 10.24 10.24s-4.5056 10.24-10.24 10.24h-51.2c-2.6624 0-5.3248 0.8192-7.7824 2.2528L270.336 606.0032c-11.4688 7.7824-18.2272 20.6848-18.2272 34.4064-0.2048 5.7344-4.7104 10.24-10.4448 10.24zM424.1408 567.5008h-7.168c-5.7344 0-10.24-4.5056-10.24-10.24s4.5056-10.24 10.24-10.24h7.168c5.7344 0 10.24 4.5056 10.24 10.24s-4.7104 10.24-10.24 10.24z" fill="#FFAEC3" p-id="13118"></path><path d="M286.3104 843.9808h-46.2848c-27.4432 0-49.7664-22.3232-49.7664-49.7664v-66.7648c0-2.6624 1.024-5.3248 3.072-7.168 1.8432-1.8432 4.5056-3.072 7.168-3.072H325.632c5.7344 0 10.24 4.5056 10.24 10.24v66.7648c0.2048 27.4432-22.1184 49.7664-49.5616 49.7664z m0-20.48c16.1792 0 29.2864-13.1072 29.2864-29.2864v-56.5248H210.944v56.5248c0 16.1792 13.1072 29.2864 29.2864 29.2864h46.08z" fill="#1C1D21" p-id="13119"></path><path d="M202.752 621.7728h90.9312c10.24 0 18.432 8.192 18.432 18.432v14.9504c0 10.24-8.192 18.432-18.432 18.432H200.704l2.048-51.8144zM821.248 621.7728h-90.9312c-10.24 0-18.432 8.192-18.432 18.432v14.9504c0 10.24 8.192 18.432 18.432 18.432H821.248l1.6384-41.1648c-0.4096-3.4816-0.8192-7.168-1.6384-10.6496z" fill="#FF8939" p-id="13120"></path><path d="M293.4784 683.6224H200.704c-2.8672 0-5.5296-1.2288-7.3728-3.072-1.8432-2.048-2.8672-4.7104-2.8672-7.5776l2.048-51.6096c0.2048-5.5296 4.7104-9.8304 10.24-9.8304h90.9312c15.7696 0 28.672 12.9024 28.672 28.672v14.9504c-0.2048 15.7696-13.1072 28.4672-28.8768 28.4672z m-82.1248-20.48h82.1248c4.5056 0 8.192-3.6864 8.192-8.192v-14.9504c0-4.5056-3.6864-8.192-8.192-8.192h-80.896l-1.2288 31.3344zM821.248 683.8272h-90.9312c-15.7696 0-28.672-12.9024-28.672-28.672v-14.9504c0-15.7696 12.9024-28.672 28.672-28.672H821.248c4.9152 0 9.0112 3.4816 10.0352 8.192 0.8192 3.8912 1.4336 7.7824 1.6384 11.8784v1.2288l-1.6384 40.96c0 5.5296-4.5056 10.0352-10.0352 10.0352z m-90.7264-51.8144c-4.5056 0-8.192 3.6864-8.192 8.192v14.9504c0 4.5056 3.6864 8.192 8.192 8.192h80.896l1.2288-30.5152v-0.6144h-82.1248z" fill="#1C1D21" p-id="13121"></path><path d="M694.272 673.5872H329.728c-9.8304 0-17.8176-7.9872-17.8176-17.8176v-15.7696c0-9.8304 7.9872-17.8176 17.8176-17.8176h364.544c9.8304 0 17.8176 7.9872 17.8176 17.8176v15.7696c0 9.8304-7.9872 17.8176-17.8176 17.8176z" fill="#AAADAD" p-id="13122"></path><path d="M694.272 683.8272H329.728c-15.5648 0-28.0576-12.6976-28.0576-28.0576v-15.7696c0-7.5776 2.8672-14.5408 8.192-19.8656 5.3248-5.3248 12.288-8.192 19.8656-8.192h364.544c15.5648 0 28.0576 12.6976 28.0576 28.0576v15.7696c0 7.5776-2.8672 14.5408-8.192 19.8656-5.3248 5.12-12.288 8.192-19.8656 8.192z m-364.544-51.8144c-2.048 0-3.8912 0.8192-5.3248 2.2528s-2.2528 3.2768-2.2528 5.3248v15.7696c0 4.3008 3.4816 7.5776 7.5776 7.5776h364.544c2.048 0 3.8912-0.8192 5.3248-2.2528 1.4336-1.4336 2.2528-3.2768 2.2528-5.3248v-15.7696c0-4.3008-3.4816-7.5776-7.5776-7.5776H329.728z" fill="#1C1D21" p-id="13123"></path><path d="M748.7488 727.6544H275.2512v-4.9152c0-27.0336 21.9136-49.152 49.152-49.152h375.3984c27.0336 0 49.152 21.9136 49.152 49.152v4.9152z" fill="#E0E0E0" p-id="13124"></path><path d="M748.7488 737.8944H275.2512c-5.7344 0-10.24-4.5056-10.24-10.24v-4.9152c0-32.768 26.624-59.392 59.392-59.392h375.3984c32.768 0 59.392 26.624 59.392 59.392v4.9152c-0.2048 5.5296-4.7104 10.24-10.4448 10.24z m-462.848-20.48h452.4032c-2.6624-19.0464-18.8416-33.5872-38.5024-33.5872H324.4032c-19.6608-0.2048-36.0448 14.5408-38.5024 33.5872zM312.1152 526.5408c-2.4576 0-5.12-1.024-6.9632-2.8672l-24.7808-23.552c-2.4576-2.4576-5.9392-3.6864-9.4208-3.6864h-6.3488c-5.7344 0-10.24-4.5056-10.24-10.24s4.5056-10.24 10.24-10.24h6.3488c8.8064 0 17.2032 3.2768 23.552 9.4208l24.7808 23.552c4.096 3.8912 4.3008 10.4448 0.4096 14.5408-2.048 2.048-4.7104 3.072-7.5776 3.072z" fill="#1C1D21" p-id="13125"></path><path d="M263.5776 498.8928h-41.1648c-11.8784 0-21.7088-9.6256-21.7088-21.7088v-4.3008c0-11.8784 9.6256-21.7088 21.7088-21.7088h41.1648c11.8784 0 21.7088 9.6256 21.7088 21.7088v4.3008c-0.2048 11.8784-9.8304 21.7088-21.7088 21.7088z" fill="#E0E0E0" p-id="13126"></path><path d="M263.5776 509.1328h-41.1648c-17.6128 0-31.9488-14.336-31.9488-31.9488v-4.3008c0-17.6128 14.336-31.9488 31.9488-31.9488h41.1648c17.6128 0 31.9488 14.336 31.9488 31.9488v4.3008c-0.2048 17.6128-14.336 31.9488-31.9488 31.9488z m-41.1648-47.7184c-6.3488 0-11.4688 5.12-11.4688 11.4688v4.3008c0 6.3488 5.12 11.4688 11.4688 11.4688h41.1648c6.3488 0 11.4688-5.12 11.4688-11.4688v-4.3008c0-6.3488-5.12-11.4688-11.4688-11.4688h-41.1648zM711.8848 526.5408c-2.6624 0-5.3248-1.024-7.3728-3.2768-3.8912-4.096-3.6864-10.6496 0.4096-14.5408l24.7808-23.552c6.3488-6.144 14.7456-9.4208 23.552-9.4208h6.3488c5.7344 0 10.24 4.5056 10.24 10.24s-4.5056 10.24-10.24 10.24h-6.3488c-3.4816 0-6.7584 1.4336-9.4208 3.6864L718.848 523.6736c-2.048 2.048-4.5056 2.8672-6.9632 2.8672z" fill="#1C1D21" p-id="13127"></path><path d="M748.7488 495.8208l33.1776 24.3712c9.6256 7.168 23.1424 5.12 30.3104-4.5056l2.6624-3.4816c7.168-9.6256 5.12-23.1424-4.5056-30.3104l-33.1776-24.3712c-9.6256-7.168-23.1424-5.12-30.3104 4.5056l-2.6624 3.4816c-7.168 9.6256-5.12 23.1424 4.5056 30.3104z" fill="#E0E0E0" p-id="13128"></path><path d="M794.624 534.7328c-6.5536 0-13.1072-2.048-18.8416-6.144l-33.1776-24.3712c-14.1312-10.4448-17.2032-30.5152-6.7584-44.6464l2.6624-3.4816c5.12-6.7584 12.4928-11.264 20.8896-12.6976 8.3968-1.2288 16.7936 0.8192 23.7568 5.9392l33.1776 24.3712c6.7584 5.12 11.264 12.4928 12.6976 20.8896s-0.8192 16.7936-5.9392 23.7568l-2.6624 3.4816c-6.3488 8.3968-15.9744 12.9024-25.8048 12.9024z m-39.7312-47.104l33.1776 24.3712c5.12 3.6864 12.288 2.6624 15.9744-2.4576l2.6624-3.4816c1.8432-2.4576 2.4576-5.5296 2.048-8.3968-0.4096-3.072-2.048-5.7344-4.5056-7.5776l-33.1776-24.3712c-2.4576-1.8432-5.5296-2.4576-8.3968-2.048-3.072 0.4096-5.7344 2.048-7.5776 4.5056l-2.6624 3.4816c-3.6864 5.12-2.6624 12.288 2.4576 15.9744z" fill="#1C1D21" p-id="13129"></path><path d="M406.1184 485.5808c-0.6144 0-1.2288 0-2.048-0.2048-5.5296-1.024-9.216-6.5536-8.192-12.0832l6.5536-33.3824c1.6384-8.6016 9.216-14.7456 17.8176-14.7456h38.7072c5.7344 0 10.24 4.5056 10.24 10.24s-4.5056 10.24-10.24 10.24h-36.864l-6.144 31.3344c-0.8192 5.12-5.12 8.6016-9.8304 8.6016z m105.8816-39.7312h-8.3968c-5.7344 0-10.24-4.5056-10.24-10.24s4.5056-10.24 10.24-10.24h8.3968c5.7344 0 10.24 4.5056 10.24 10.24s-4.5056 10.24-10.24 10.24z" fill="#DCFDFF" p-id="13130"></path><path d="M712.0896 526.5408l-400.1792-0.2048c-3.072 0-5.9392-1.4336-7.7824-3.6864-2.048-2.2528-2.6624-5.3248-2.2528-8.3968l20.48-113.0496a75.3664 75.3664 0 0 1 74.3424-62.0544h42.8032c5.7344 0 10.24 4.5056 10.24 10.24s-4.5056 10.24-10.24 10.24h-42.8032c-26.624 0-49.3568 19.0464-54.0672 45.2608l-18.2272 101.1712H348.16l18.8416-96.8704c2.6624-14.336 15.1552-24.7808 29.9008-24.7808h133.9392v-24.576h-7.3728c-5.7344 0-10.24-4.5056-10.24-10.24s4.5056-10.24 10.24-10.24h17.6128c5.7344 0 10.24 4.5056 10.24 10.24v45.056c0 5.7344-4.5056 10.24-10.24 10.24h-144.1792c-4.7104 0-8.8064 3.4816-9.6256 8.192l-18.0224 92.9792h286.5152l-18.0224-92.9792c-0.8192-4.9152-4.9152-8.192-9.6256-8.192h-36.4544c-5.5296 0-10.0352-4.3008-10.24-9.6256l-2.4576-45.056c-0.2048-2.8672 0.8192-5.5296 2.8672-7.5776s4.7104-3.2768 7.3728-3.2768h39.1168c36.4544 0 67.7888 26.2144 74.1376 62.0544l20.2752 113.2544c0.6144 3.072-0.2048 6.144-2.2528 8.3968-2.4576 2.2528-5.3248 3.4816-8.3968 3.4816z m-36.0448-20.48h23.7568l-18.2272-101.1712c-4.7104-26.2144-27.4432-45.2608-54.0672-45.2608h-28.2624l1.2288 24.576h26.8288c14.7456 0 27.2384 10.4448 29.9008 24.9856l18.8416 96.8704z" fill="#1C1D21" p-id="13131"></path><path d="M664.9856 774.3488H359.0144c-18.432 0-33.1776-14.9504-33.1776-33.1776v-13.5168h372.3264v13.5168c0 18.432-14.9504 33.1776-33.1776 33.1776z" fill="#FF3E63" p-id="13132"></path><path d="M664.9856 784.5888H359.0144c-23.9616 0-43.4176-19.456-43.4176-43.4176v-13.5168c0-5.7344 4.5056-10.24 10.24-10.24h372.3264c5.7344 0 10.24 4.5056 10.24 10.24v13.5168c0 23.9616-19.456 43.4176-43.4176 43.4176z m-328.9088-46.6944v3.2768c0 12.6976 10.24 22.9376 22.9376 22.9376h305.9712c12.6976 0 22.9376-10.24 22.9376-22.9376v-3.2768H336.0768z" fill="#1C1D21" p-id="13133"></path><path d="M548.4544 198.656c4.7104-6.9632 7.5776-15.5648 7.5776-24.576 0-8.8064-2.6624-17.2032-7.168-23.9616 10.6496-9.8304 17.2032-23.9616 17.2032-39.7312 0-29.9008-24.1664-54.0672-54.0672-54.0672-29.9008 0-54.0672 24.1664-54.0672 54.0672 0 15.5648 6.7584 29.696 17.2032 39.7312-4.5056 6.9632-7.168 15.1552-7.168 23.9616 0 9.0112 2.8672 17.6128 7.5776 24.576" fill="#AAADAD" p-id="13134"></path><path d="M548.4544 208.896c-2.048 0-3.8912-0.6144-5.7344-1.8432-4.7104-3.072-5.9392-9.6256-2.6624-14.1312 3.6864-5.5296 5.7344-12.0832 5.7344-18.8416 0-6.5536-1.8432-12.9024-5.5296-18.432-2.6624-4.096-2.048-9.6256 1.6384-13.1072 9.0112-8.3968 13.9264-19.8656 13.9264-32.1536 0-24.1664-19.6608-43.8272-43.8272-43.8272s-43.8272 19.6608-43.8272 43.8272c0 12.288 4.9152 23.7568 13.9264 32.1536 3.6864 3.4816 4.3008 9.0112 1.6384 13.1072-3.4816 5.5296-5.5296 11.8784-5.5296 18.432 0 6.7584 2.048 13.312 5.7344 18.8416 3.072 4.7104 1.8432 11.0592-2.6624 14.1312-4.7104 3.072-11.0592 1.8432-14.1312-2.6624-6.144-9.0112-9.216-19.456-9.216-30.3104 0-7.7824 1.6384-15.36 4.9152-22.3232-9.6256-11.4688-14.9504-26.2144-14.9504-41.1648 0-35.4304 28.8768-64.3072 64.3072-64.3072s64.3072 28.8768 64.3072 64.3072c0 15.1552-5.3248 29.696-14.9504 41.1648 3.2768 6.9632 4.9152 14.5408 4.9152 22.3232 0 10.8544-3.2768 21.2992-9.216 30.3104-2.2528 3.072-5.5296 4.5056-8.8064 4.5056z" fill="#1C1D21" p-id="13135"></path><path d="M540.0576 292.2496c3.6864-5.3248 5.7344-11.8784 5.7344-18.8416 0-6.7584-2.048-13.1072-5.5296-18.432 8.192-7.5776 13.312-18.432 13.312-30.5152 0-22.9376-18.6368-41.5744-41.5744-41.5744s-41.5744 18.6368-41.5744 41.5744c0 12.0832 5.12 22.9376 13.312 30.5152-3.4816 5.3248-5.5296 11.6736-5.5296 18.432 0 6.9632 2.048 13.5168 5.7344 18.8416" fill="#E0E0E0" p-id="13136"></path><path d="M540.0576 302.4896c-2.048 0-3.8912-0.6144-5.7344-1.8432-4.7104-3.072-5.9392-9.6256-2.6624-14.1312 2.6624-3.8912 4.096-8.3968 4.096-13.1072 0-4.5056-1.2288-9.0112-3.8912-12.9024-2.6624-4.096-2.048-9.6256 1.6384-13.1072 6.3488-5.9392 10.0352-14.1312 10.0352-22.9376 0-17.2032-14.1312-31.3344-31.3344-31.3344s-31.3344 14.1312-31.3344 31.3344c0 8.8064 3.4816 16.9984 10.0352 22.9376 3.6864 3.4816 4.3008 9.0112 1.6384 13.1072-2.4576 3.8912-3.8912 8.192-3.8912 12.9024s1.4336 9.216 4.096 13.1072c3.072 4.7104 1.8432 11.0592-2.6624 14.1312-4.7104 3.072-11.0592 1.8432-14.1312-2.6624-4.9152-7.3728-7.5776-15.7696-7.5776-24.576 0-5.7344 1.2288-11.4688 3.2768-16.7936-7.168-9.0112-11.0592-20.48-11.0592-31.9488 0-28.4672 23.1424-51.8144 51.8144-51.8144s51.8144 23.1424 51.8144 51.8144c0 11.6736-3.8912 22.9376-11.0592 31.9488 2.2528 5.3248 3.2768 11.0592 3.2768 16.7936 0 8.8064-2.6624 17.408-7.5776 24.576-2.4576 2.8672-5.5296 4.5056-8.8064 4.5056z" fill="#1C1D21" p-id="13137"></path><path d="M422.2976 232.2432c1.2288-5.9392 0.6144-12.288-1.8432-18.432-2.4576-5.9392-6.5536-10.6496-11.264-13.9264 4.3008-9.4208 4.9152-20.6848 0.4096-30.9248-8.192-19.8656-30.9248-29.0816-50.7904-20.8896-19.8656 8.192-29.0816 30.9248-20.8896 50.7904 4.3008 10.4448 12.6976 17.8176 22.3232 21.504-1.024 5.7344-0.6144 12.0832 1.8432 17.8176 2.4576 5.9392 6.7584 10.8544 11.6736 14.1312" fill="#E0E0E0" p-id="13138"></path><path d="M374.1696 262.5536c-1.8432 0-3.8912-0.6144-5.5296-1.6384-6.9632-4.5056-12.288-11.0592-15.5648-18.8416-2.048-4.9152-3.072-10.24-3.2768-15.5648-9.4208-5.3248-16.7936-13.7216-21.0944-23.7568-10.4448-24.9856 1.4336-53.6576 26.4192-64.1024 24.9856-10.4448 53.6576 1.4336 64.1024 26.4192 4.3008 10.0352 4.9152 21.2992 2.048 31.744 3.6864 3.6864 6.7584 8.192 8.8064 13.312 3.2768 7.7824 4.096 16.1792 2.4576 24.3712-1.024 5.5296-6.5536 9.216-12.0832 7.9872-5.5296-1.024-9.216-6.5536-7.9872-12.0832 0.8192-4.096 0.4096-8.3968-1.2288-12.288-1.6384-3.8912-4.3008-7.168-7.5776-9.4208-4.096-2.8672-5.7344-8.192-3.4816-12.6976 3.2768-7.3728 3.4816-15.36 0.4096-22.7328-6.144-14.5408-22.7328-21.504-37.2736-15.36s-21.504 22.9376-15.36 37.2736c3.072 7.3728 9.0112 13.1072 16.5888 15.7696 4.7104 1.6384 7.3728 6.5536 6.5536 11.4688-0.8192 4.096-0.2048 8.192 1.2288 12.0832 1.6384 3.8912 4.3008 7.168 7.9872 9.6256 4.7104 3.072 6.144 9.4208 2.8672 14.1312-2.4576 2.6624-5.7344 4.3008-9.0112 4.3008z" fill="#1C1D21" p-id="13139"></path><path d="M601.7024 232.2432c-1.2288-5.9392-0.6144-12.288 1.8432-18.432 2.4576-5.9392 6.5536-10.6496 11.264-13.9264-4.3008-9.4208-4.9152-20.6848-0.4096-30.9248 8.192-19.8656 30.9248-29.0816 50.7904-20.8896 19.8656 8.192 29.0816 30.9248 20.8896 50.7904-4.3008 10.4448-12.6976 17.8176-22.3232 21.504 1.024 5.7344 0.6144 12.0832-1.8432 17.8176-2.4576 5.9392-6.7584 10.8544-11.6736 14.1312" fill="#E0E0E0" p-id="13140"></path><path d="M649.8304 262.5536c-3.2768 0-6.5536-1.6384-8.6016-4.7104-3.072-4.7104-1.8432-11.0592 2.8672-14.1312 3.4816-2.2528 6.3488-5.7344 7.9872-9.6256 1.6384-3.8912 2.048-7.9872 1.2288-12.0832-0.8192-4.9152 1.8432-9.8304 6.5536-11.4688 7.5776-2.8672 13.312-8.3968 16.5888-15.7696 6.144-14.5408-0.8192-31.3344-15.36-37.2736-14.5408-6.144-31.3344 0.8192-37.2736 15.36-3.072 7.3728-2.8672 15.5648 0.4096 22.7328 2.048 4.5056 0.6144 9.8304-3.4816 12.6976-3.4816 2.2528-6.144 5.5296-7.5776 9.4208-1.6384 3.8912-2.048 8.192-1.2288 12.288 1.024 5.5296-2.4576 10.8544-7.9872 12.0832-5.5296 1.2288-10.8544-2.4576-12.0832-7.9872-1.6384-8.192-0.8192-16.5888 2.4576-24.3712 2.048-4.9152 5.12-9.4208 8.8064-13.312-2.8672-10.4448-2.048-21.7088 2.048-31.744 10.4448-24.9856 39.1168-36.864 64.1024-26.4192s36.864 39.1168 26.4192 64.1024c-4.3008 10.0352-11.6736 18.432-21.0944 23.7568 0 5.3248-1.2288 10.6496-3.2768 15.5648-3.2768 7.7824-8.6016 14.1312-15.5648 18.8416-2.048 1.6384-3.8912 2.048-5.9392 2.048z" fill="#1C1D21" p-id="13141"></path><path d="M241.664 767.5904c-0.6144 0-1.4336 0-2.048-0.2048l-1.8432-0.6144c-0.6144-0.2048-1.2288-0.6144-1.8432-1.024-0.6144-0.4096-1.024-0.8192-1.6384-1.2288-0.4096-0.4096-0.8192-1.024-1.2288-1.6384-0.4096-0.6144-0.6144-1.2288-1.024-1.8432l-0.6144-1.8432c-0.2048-0.6144-0.2048-1.4336-0.2048-2.048 0-0.6144 0-1.4336 0.2048-2.048l0.6144-1.8432c0.2048-0.6144 0.6144-1.2288 1.024-1.8432 0.4096-0.6144 0.8192-1.024 1.2288-1.6384 0.4096-0.4096 1.024-0.8192 1.6384-1.2288 0.6144-0.4096 1.2288-0.6144 1.8432-1.024l1.8432-0.6144c1.4336-0.2048 2.6624-0.2048 4.096 0l1.8432 0.6144c0.6144 0.2048 1.2288 0.6144 1.8432 1.024 0.6144 0.4096 1.024 0.8192 1.6384 1.2288 0.4096 0.4096 0.8192 1.024 1.2288 1.6384 0.4096 0.6144 0.6144 1.2288 1.024 1.8432l0.6144 1.8432c0.2048 0.6144 0.2048 1.4336 0.2048 2.048 0 0.6144 0 1.2288-0.2048 2.048l-0.6144 1.8432c-0.2048 0.6144-0.6144 1.2288-1.024 1.8432-0.4096 0.6144-0.8192 1.024-1.2288 1.6384-0.4096 0.4096-1.024 0.8192-1.6384 1.2288-0.6144 0.4096-1.2288 0.6144-1.8432 1.024l-1.8432 0.6144c-0.6144 0-1.4336 0.2048-2.048 0.2048zM739.1232 843.9808c-5.7344 0-10.24-4.5056-10.24-10.24v-42.1888c0-5.7344 4.5056-10.24 10.24-10.24s10.24 4.5056 10.24 10.24v42.1888c0 5.5296-4.5056 10.24-10.24 10.24zM739.1232 767.5904c-0.6144 0-1.4336 0-2.048-0.2048l-1.8432-0.6144c-0.6144-0.2048-1.2288-0.6144-1.8432-1.024-0.6144-0.4096-1.024-0.8192-1.6384-1.2288-0.4096-0.4096-0.8192-1.024-1.2288-1.6384s-0.6144-1.2288-1.024-1.8432l-0.6144-1.8432c-0.2048-0.6144-0.2048-1.4336-0.2048-2.048 0-0.6144 0-1.4336 0.2048-2.048l0.6144-1.8432c0.2048-0.6144 0.6144-1.2288 1.024-1.8432 0.4096-0.6144 0.8192-1.024 1.2288-1.6384 0.4096-0.4096 1.024-0.8192 1.6384-1.2288 0.6144-0.4096 1.2288-0.6144 1.8432-1.024l1.8432-0.6144c1.2288-0.2048 2.6624-0.2048 4.096 0l1.8432 0.6144c0.6144 0.2048 1.2288 0.6144 1.8432 1.024 0.6144 0.4096 1.024 0.8192 1.6384 1.2288 0.4096 0.4096 0.8192 1.024 1.2288 1.6384 0.4096 0.6144 0.6144 1.2288 1.024 1.8432l0.6144 1.8432c0.2048 0.6144 0.2048 1.4336 0.2048 2.048 0 2.6624-1.024 5.3248-3.072 7.168-0.4096 0.4096-1.024 0.8192-1.6384 1.2288-0.6144 0.4096-1.2288 0.6144-1.8432 1.024l-1.8432 0.6144c-0.6144 0.2048-1.4336 0.4096-2.048 0.4096z" fill="#E0E0E0" p-id="13142"></path><path d="M783.7696 844.1856h-46.2848c-27.4432 0-49.7664-22.3232-49.7664-49.7664v-66.7648c0-2.6624 1.024-5.3248 3.072-7.168 1.8432-1.8432 4.5056-3.072 7.168-3.072h125.1328c5.7344 0 10.24 4.5056 10.24 10.24v66.7648c0.2048 27.4432-22.1184 49.7664-49.5616 49.7664z m0-20.48c16.1792 0 29.2864-13.1072 29.2864-29.2864v-56.5248h-104.6528v56.5248c0 16.1792 13.1072 29.2864 29.2864 29.2864h46.08zM484.352 359.6288h-7.7824c-5.7344 0-10.24-4.5056-10.24-10.24s4.5056-10.24 10.24-10.24h7.7824c5.7344 0 10.24 4.5056 10.24 10.24s-4.5056 10.24-10.24 10.24z" fill="#1C1D21" p-id="13143"></path></svg>